<mxfile host="app.diagrams.net" modified="2023-10-13T13:41:43.172Z" agent="Mozilla/5.0 (Windows NT 10.0; Win64; x64; rv:109.0) Gecko/20100101 Firefox/118.0" etag="pxinZEFYypT6_cO5SG-L" version="22.0.4" type="github">
  <diagram name="第 1 页" id="230re3bSeqJNsvz120OU">
    <mxGraphModel dx="1235" dy="633" grid="1" gridSize="10" guides="1" tooltips="1" connect="1" arrows="1" fold="1" page="1" pageScale="1" pageWidth="827" pageHeight="1169" math="0" shadow="0">
      <root>
        <mxCell id="0" />
        <mxCell id="1" parent="0" />
        <mxCell id="_MToJE-PiGv9jwknqY7h-1" value="" style="edgeStyle=orthogonalEdgeStyle;rounded=0;orthogonalLoop=1;jettySize=auto;html=1;" edge="1" parent="1" source="_MToJE-PiGv9jwknqY7h-2" target="_MToJE-PiGv9jwknqY7h-4">
          <mxGeometry relative="1" as="geometry" />
        </mxCell>
        <mxCell id="_MToJE-PiGv9jwknqY7h-2" value="" style="points=[[0.145,0.145,0],[0.5,0,0],[0.855,0.145,0],[1,0.5,0],[0.855,0.855,0],[0.5,1,0],[0.145,0.855,0],[0,0.5,0]];shape=mxgraph.bpmn.event;html=1;verticalLabelPosition=bottom;labelBackgroundColor=#ffffff;verticalAlign=top;align=center;perimeter=ellipsePerimeter;outlineConnect=0;aspect=fixed;outline=standard;symbol=general;" vertex="1" parent="1">
          <mxGeometry x="30" y="302.5" width="40" height="40" as="geometry" />
        </mxCell>
        <mxCell id="_MToJE-PiGv9jwknqY7h-3" value="" style="edgeStyle=orthogonalEdgeStyle;rounded=0;orthogonalLoop=1;jettySize=auto;html=1;" edge="1" parent="1" source="_MToJE-PiGv9jwknqY7h-4" target="_MToJE-PiGv9jwknqY7h-6">
          <mxGeometry relative="1" as="geometry" />
        </mxCell>
        <mxCell id="_MToJE-PiGv9jwknqY7h-4" value="loan application is approved" style="whiteSpace=wrap;html=1;verticalAlign=top;labelBackgroundColor=#ffffff;" vertex="1" parent="1">
          <mxGeometry x="110" y="302.5" width="120" height="40" as="geometry" />
        </mxCell>
        <mxCell id="_MToJE-PiGv9jwknqY7h-5" value="" style="edgeStyle=orthogonalEdgeStyle;rounded=0;orthogonalLoop=1;jettySize=auto;html=1;" edge="1" parent="1" source="_MToJE-PiGv9jwknqY7h-6" target="_MToJE-PiGv9jwknqY7h-8">
          <mxGeometry relative="1" as="geometry" />
        </mxCell>
        <mxCell id="_MToJE-PiGv9jwknqY7h-6" value="sent acceptance pack to customer" style="whiteSpace=wrap;html=1;verticalAlign=top;labelBackgroundColor=#ffffff;" vertex="1" parent="1">
          <mxGeometry x="280" y="302.5" width="110" height="40" as="geometry" />
        </mxCell>
        <mxCell id="_MToJE-PiGv9jwknqY7h-7" value="" style="edgeStyle=orthogonalEdgeStyle;rounded=0;orthogonalLoop=1;jettySize=auto;html=1;entryX=0;entryY=0.5;entryDx=0;entryDy=0;entryPerimeter=0;" edge="1" parent="1" source="_MToJE-PiGv9jwknqY7h-8" target="_MToJE-PiGv9jwknqY7h-17">
          <mxGeometry relative="1" as="geometry">
            <mxPoint x="587.5" y="322.5" as="targetPoint" />
          </mxGeometry>
        </mxCell>
        <mxCell id="_MToJE-PiGv9jwknqY7h-8" value="customer send signed documents back " style="whiteSpace=wrap;html=1;verticalAlign=top;labelBackgroundColor=#ffffff;" vertex="1" parent="1">
          <mxGeometry x="414" y="410" width="126" height="40" as="geometry" />
        </mxCell>
        <mxCell id="_MToJE-PiGv9jwknqY7h-9" style="edgeStyle=orthogonalEdgeStyle;rounded=0;orthogonalLoop=1;jettySize=auto;html=1;entryX=0;entryY=0.5;entryDx=0;entryDy=0;" edge="1" parent="1" source="_MToJE-PiGv9jwknqY7h-10">
          <mxGeometry relative="1" as="geometry">
            <mxPoint x="980" y="322.5" as="targetPoint" />
          </mxGeometry>
        </mxCell>
        <mxCell id="_MToJE-PiGv9jwknqY7h-10" value="&amp;nbsp;cancel the application" style="rounded=0;whiteSpace=wrap;html=1;" vertex="1" parent="1">
          <mxGeometry x="805" y="302.5" width="120" height="40" as="geometry" />
        </mxCell>
        <mxCell id="_MToJE-PiGv9jwknqY7h-45" style="edgeStyle=orthogonalEdgeStyle;rounded=0;orthogonalLoop=1;jettySize=auto;html=1;entryX=0.5;entryY=1;entryDx=0;entryDy=0;" edge="1" parent="1" source="_MToJE-PiGv9jwknqY7h-12" target="_MToJE-PiGv9jwknqY7h-42">
          <mxGeometry relative="1" as="geometry" />
        </mxCell>
        <mxCell id="_MToJE-PiGv9jwknqY7h-12" value="loan provider approves the application" style="rounded=0;whiteSpace=wrap;html=1;" vertex="1" parent="1">
          <mxGeometry x="821" y="420" width="80" height="40" as="geometry" />
        </mxCell>
        <mxCell id="_MToJE-PiGv9jwknqY7h-13" style="edgeStyle=orthogonalEdgeStyle;rounded=0;orthogonalLoop=1;jettySize=auto;html=1;entryX=0;entryY=0.5;entryDx=0;entryDy=0;" edge="1" parent="1" source="_MToJE-PiGv9jwknqY7h-17" target="_MToJE-PiGv9jwknqY7h-10">
          <mxGeometry relative="1" as="geometry" />
        </mxCell>
        <mxCell id="_MToJE-PiGv9jwknqY7h-14" value="Disagreed" style="edgeLabel;html=1;align=center;verticalAlign=middle;resizable=0;points=[];" vertex="1" connectable="0" parent="_MToJE-PiGv9jwknqY7h-13">
          <mxGeometry x="0.0162" y="-1" relative="1" as="geometry">
            <mxPoint as="offset" />
          </mxGeometry>
        </mxCell>
        <mxCell id="_MToJE-PiGv9jwknqY7h-15" style="edgeStyle=orthogonalEdgeStyle;rounded=0;orthogonalLoop=1;jettySize=auto;html=1;entryX=0;entryY=0.5;entryDx=0;entryDy=0;exitX=0.5;exitY=1;exitDx=0;exitDy=0;" edge="1" parent="1" source="_MToJE-PiGv9jwknqY7h-17" target="_MToJE-PiGv9jwknqY7h-12">
          <mxGeometry relative="1" as="geometry">
            <mxPoint x="600" y="210" as="targetPoint" />
          </mxGeometry>
        </mxCell>
        <mxCell id="_MToJE-PiGv9jwknqY7h-16" value="Agree" style="edgeLabel;html=1;align=center;verticalAlign=middle;resizable=0;points=[];" vertex="1" connectable="0" parent="_MToJE-PiGv9jwknqY7h-15">
          <mxGeometry x="0.0048" y="-1" relative="1" as="geometry">
            <mxPoint x="1" as="offset" />
          </mxGeometry>
        </mxCell>
        <mxCell id="_MToJE-PiGv9jwknqY7h-17" value="verifies the repayment agreement" style="whiteSpace=wrap;html=1;points=[[0.25,0.25,0],[0.5,0,0],[0.75,0.25,0],[1,0.5,0],[0.75,0.75,0],[0.5,1,0],[0.25,0.75,0],[0,0.5,0]];shape=mxgraph.bpmn.gateway2;verticalLabelPosition=bottom;labelBackgroundColor=#ffffff;verticalAlign=top;perimeter=rhombusPerimeter;outlineConnect=0;outline=none;symbol=none;gwType=exclusive;" vertex="1" parent="1">
          <mxGeometry x="610" y="300" width="70" height="45" as="geometry" />
        </mxCell>
        <mxCell id="_MToJE-PiGv9jwknqY7h-18" value="" style="points=[[0.145,0.145,0],[0.5,0,0],[0.855,0.145,0],[1,0.5,0],[0.855,0.855,0],[0.5,1,0],[0.145,0.855,0],[0,0.5,0]];shape=mxgraph.bpmn.event;html=1;verticalLabelPosition=bottom;labelBackgroundColor=#ffffff;verticalAlign=top;align=center;perimeter=ellipsePerimeter;outlineConnect=0;aspect=fixed;outline=throwing;symbol=general;" vertex="1" parent="1">
          <mxGeometry x="1335" y="307.5" width="40" height="40" as="geometry" />
        </mxCell>
        <mxCell id="_MToJE-PiGv9jwknqY7h-37" value="notify the applicant of the application status" style="whiteSpace=wrap;html=1;verticalAlign=top;labelBackgroundColor=#ffffff;" vertex="1" parent="1">
          <mxGeometry x="1160" y="305" width="130" height="40" as="geometry" />
        </mxCell>
        <mxCell id="_MToJE-PiGv9jwknqY7h-41" style="edgeStyle=orthogonalEdgeStyle;rounded=0;orthogonalLoop=1;jettySize=auto;html=1;entryX=0;entryY=0.5;entryDx=0;entryDy=0;entryPerimeter=0;" edge="1" parent="1" target="_MToJE-PiGv9jwknqY7h-18">
          <mxGeometry relative="1" as="geometry">
            <mxPoint x="1290" y="327.5" as="sourcePoint" />
          </mxGeometry>
        </mxCell>
        <mxCell id="_MToJE-PiGv9jwknqY7h-44" value="" style="edgeStyle=orthogonalEdgeStyle;rounded=0;orthogonalLoop=1;jettySize=auto;html=1;" edge="1" parent="1" source="_MToJE-PiGv9jwknqY7h-42" target="_MToJE-PiGv9jwknqY7h-37">
          <mxGeometry relative="1" as="geometry" />
        </mxCell>
        <mxCell id="_MToJE-PiGv9jwknqY7h-42" value="" style="whiteSpace=wrap;html=1;points=[[0.25,0.25,0],[0.5,0,0],[0.75,0.25,0],[1,0.5,0],[0.75,0.75,0],[0.5,1,0],[0.25,0.75,0],[0,0.5,0]];shape=mxgraph.bpmn.gateway2;verticalLabelPosition=bottom;labelBackgroundColor=#ffffff;verticalAlign=top;perimeter=rhombusPerimeter;outlineConnect=0;outline=none;symbol=none;gwType=exclusive;" vertex="1" parent="1">
          <mxGeometry x="980" y="302.5" width="60" height="45" as="geometry" />
        </mxCell>
      </root>
    </mxGraphModel>
  </diagram>
</mxfile>
